<svg width="64" height="64" viewBox="0 0 64 64" fill="none" xmlns="http://www.w3.org/2000/svg">
<rect width="64" height="64" fill="white"/>
<path d="M31.0621 46.7262L31.2864 33.0018V19.7932C31.2864 18.4768 32.8833 17.7991 33.8103 18.7317L45.2518 30.2371C46.1788 31.1697 45.5389 32.7769 44.1962 32.7769H34.1303C33.0119 32.7769 32.4377 34.1592 33.2362 34.9629L45.8259 47.6258C46.6244 48.4294 48 47.8506 48 46.7262V18.12C48 16.9296 47.0401 16 45.8917 16H17.4167C16.074 16 15.4998 17.3823 16.5225 18.1859L28.5382 30.2701C29.4652 31.2027 28.8252 32.8099 27.4825 32.8099H17.4167C16.074 32.8099 15.4998 34.1922 16.5225 34.9958L29.1123 47.6258C29.6865 48.4294 31.0621 47.8506 31.0621 46.7262Z" fill="black"/>
</svg>
